# xmcd
#
# Track frame offsets:
#	150
#	15783
#	32338
#	49596
#	64500
#	81630
#	95250
#	116644
#	140238
#
# Disc length: 2171 seconds
#
# Revision: 17
# Processed by: cddbd v1.5.2PL0 Copyright (c) Steve Scherf et al.
# Submitted via: Jack! The Knife 20 Magnifico
#
DISCID=6b087909
DTITLE=Scorpions - Virgin Killer
DYEAR=1976
DGENRE=Hard Rock
TTITLE0=Pictured Life
TTITLE1=Catch Your Train
TTITLE2=In Your Park
TTITLE3=Backstage Queen
TTITLE4=Virgin Killer
TTITLE5=Hell-Cat
TTITLE6=Crying Days
TTITLE7=Polar Night
TTITLE8=Yellow Raven
EXTD=Dieter Dierks
EXTT0=Meine, Roth, Schenker
EXTT1=Meine, Schenker
EXTT2=Meine, Schenker
EXTT3=Meine, Schenker
EXTT4=Ulrich Roth
EXTT5=Ulrich Roth
EXTT6=Meine, Schenker
EXTT7=Ulrich Roth
EXTT8=Ulrich Roth
PLAYORDER=
